name Walk1.mot
datacolumns 19
datarows 22
range 2.05300000 2.07400000
endheader

                time	   L_ground_force_vx	   L_ground_force_vy	   L_ground_force_vz	   L_ground_force_px	   L_ground_force_py	   L_ground_force_pz	   R_ground_force_vx	   R_ground_force_vy	   R_ground_force_vz	   R_ground_force_px	   R_ground_force_py	   R_ground_force_pz	   L_ground_torque_x	   L_ground_torque_y	   L_ground_torque_z	   R_ground_torque_x	   R_ground_torque_y	   R_ground_torque_z	
          2.05300000	          0.00000000	          0.00000000	          0.00000000	          0.00000000	          0.00000000	          0.00000000	         -9.40964844	        882.59753923	        -76.02209168	          0.23169802	          0.00000000	          0.13900468	          0.00000000	          0.00000000	          0.00000000	          0.00000000	         10.36724779	          0.00000000	
          2.05400000	          0.00000000	          0.00000000	          0.00000000	          0.00000000	          0.00000000	          0.00000000	         -9.18610324	        882.34685476	        -75.80381450	          0.23187045	          0.00000000	          0.13898290	          0.00000000	          0.00000000	          0.00000000	          0.00000000	         10.30096470	          0.00000000	
          2.05500000	          0.00000000	          0.00000000	          0.00000000	          0.00000000	          0.00000000	          0.00000000	         -8.97276487	        882.12282813	        -75.58601108	          0.23207351	          0.00000000	          0.13894357	          0.00000000	          0.00000000	          0.00000000	          0.00000000	         10.23515782	          0.00000000	
          2.05600000	          0.00000000	          0.00000000	          0.00000000	          0.00000000	          0.00000000	          0.00000000	         -8.76851902	        881.93750519	        -75.37894486	          0.23229547	          0.00000000	          0.13889910	          0.00000000	          0.00000000	          0.00000000	          0.00000000	         10.16997675	          0.00000000	
          2.05700000	          0.00000000	          0.00000000	          0.00000000	          0.00000000	          0.00000000	          0.00000000	         -8.56167955	        881.79059734	        -75.17747241	          0.23250707	          0.00000000	          0.13886273	          0.00000000	          0.00000000	          0.00000000	          0.00000000	         10.10675006	          0.00000000	
          2.05800000	          0.00000000	          0.00000000	          0.00000000	          0.00000000	          0.00000000	          0.00000000	         -8.33550429	        881.68126937	        -74.95596732	          0.23268300	          0.00000000	          0.13884070	          0.00000000	          0.00000000	          0.00000000	          0.00000000	         10.04557933	          0.00000000	
          2.05900000	          0.00000000	          0.00000000	          0.00000000	          0.00000000	          0.00000000	          0.00000000	         -8.08055569	        881.58967341	        -74.68645942	          0.23281978	          0.00000000	          0.13883033	          0.00000000	          0.00000000	          0.00000000	          0.00000000	          9.98407618	          0.00000000	
          2.06000000	          0.00000000	          0.00000000	          0.00000000	          0.00000000	          0.00000000	          0.00000000	         -7.80388603	        881.47880991	        -74.36691243	          0.23293653	          0.00000000	          0.13882426	          0.00000000	          0.00000000	          0.00000000	          0.00000000	          9.91995677	          0.00000000	
          2.06100000	          0.00000000	          0.00000000	          0.00000000	          0.00000000	          0.00000000	          0.00000000	         -7.52584617	        881.33834690	        -74.02277315	          0.23306380	          0.00000000	          0.13882137	          0.00000000	          0.00000000	          0.00000000	          0.00000000	          9.85227253	          0.00000000	
          2.06200000	          0.00000000	          0.00000000	          0.00000000	          0.00000000	          0.00000000	          0.00000000	         -7.26538404	        881.20246834	        -73.68064359	          0.23322315	          0.00000000	          0.13882932	          0.00000000	          0.00000000	          0.00000000	          0.00000000	          9.78062789	          0.00000000	
          2.06300000	          0.00000000	          0.00000000	          0.00000000	          0.00000000	          0.00000000	          0.00000000	         -7.02845066	        881.10888654	        -73.35350138	          0.23340413	          0.00000000	          0.13885042	          0.00000000	          0.00000000	          0.00000000	          0.00000000	          9.70539721	          0.00000000	
          2.06400000	          0.00000000	          0.00000000	          0.00000000	          0.00000000	          0.00000000	          0.00000000	         -6.80724961	        881.06283437	        -73.04687714	          0.23356737	          0.00000000	          0.13887339	          0.00000000	          0.00000000	          0.00000000	          0.00000000	          9.62809814	          0.00000000	
          2.06500000	          0.00000000	          0.00000000	          0.00000000	          0.00000000	          0.00000000	          0.00000000	         -6.58569013	        881.04962057	        -72.76167400	          0.23368023	          0.00000000	          0.13888275	          0.00000000	          0.00000000	          0.00000000	          0.00000000	          9.55030638	          0.00000000	
          2.06600000	          0.00000000	          0.00000000	          0.00000000	          0.00000000	          0.00000000	          0.00000000	         -6.34873869	        881.05363366	        -72.49469063	          0.23374365	          0.00000000	          0.13886749	          0.00000000	          0.00000000	          0.00000000	          0.00000000	          9.47276686	          0.00000000	
          2.06700000	          0.00000000	          0.00000000	          0.00000000	          0.00000000	          0.00000000	          0.00000000	         -6.09174047	        881.06030716	        -72.24715458	          0.23378718	          0.00000000	          0.13882343	          0.00000000	          0.00000000	          0.00000000	          0.00000000	          9.39797065	          0.00000000	
          2.06800000	          0.00000000	          0.00000000	          0.00000000	          0.00000000	          0.00000000	          0.00000000	         -5.82102820	        881.06366701	        -72.02462413	          0.23384928	          0.00000000	          0.13875876	          0.00000000	          0.00000000	          0.00000000	          0.00000000	          9.33296401	          0.00000000	
          2.06900000	          0.00000000	          0.00000000	          0.00000000	          0.00000000	          0.00000000	          0.00000000	         -5.54338608	        881.07090884	        -71.82348054	          0.23395589	          0.00000000	          0.13869365	          0.00000000	          0.00000000	          0.00000000	          0.00000000	          9.28534244	          0.00000000	
          2.07000000	          0.00000000	          0.00000000	          0.00000000	          0.00000000	          0.00000000	          0.00000000	         -5.25697843	        881.08722894	        -71.62661715	          0.23410451	          0.00000000	          0.13864678	          0.00000000	          0.00000000	          0.00000000	          0.00000000	          9.25493106	          0.00000000	
          2.07100000	          0.00000000	          0.00000000	          0.00000000	          0.00000000	          0.00000000	          0.00000000	         -4.95751509	        881.10886144	        -71.41482774	          0.23427630	          0.00000000	          0.13862514	          0.00000000	          0.00000000	          0.00000000	          0.00000000	          9.23103399	          0.00000000	
          2.07200000	          0.00000000	          0.00000000	          0.00000000	          0.00000000	          0.00000000	          0.00000000	         -4.64983562	        881.14841792	        -71.17716801	          0.23446959	          0.00000000	          0.13863023	          0.00000000	          0.00000000	          0.00000000	          0.00000000	          9.19750930	          0.00000000	
          2.07300000	          0.00000000	          0.00000000	          0.00000000	          0.00000000	          0.00000000	          0.00000000	         -4.34636533	        881.25087473	        -70.91088076	          0.23470173	          0.00000000	          0.13866214	          0.00000000	          0.00000000	          0.00000000	          0.00000000	          9.14051976	          0.00000000	
          2.07400000	          0.00000000	          0.00000000	          0.00000000	          0.00000000	          0.00000000	          0.00000000	         -4.05355414	        881.45735838	        -70.62013417	          0.23497176	          0.00000000	          0.13870768	          0.00000000	          0.00000000	          0.00000000	          0.00000000	          9.05609968	          0.00000000	
